<?xml version="1.0" encoding="UTF-8"?>
<svg width="100" height="100" viewBox="0 0 100 100" xmlns="http://www.w3.org/2000/svg">
  <!-- الخلفية الدائرية السوداء -->
  <circle cx="50" cy="50" r="48" fill="#000000" stroke="#FFD700" stroke-width="4"/>
  
  <!-- رمز الدمبل -->
  <g fill="#FFD700">
    <path d="M30,40 L70,40 C72.76,40 75,42.24 75,45 L75,55 C75,57.76 72.76,60 70,60 L30,60 C27.24,60 25,57.76 25,55 L25,45 C25,42.24 27.24,40 30,40 Z" />
    <circle cx="25" cy="50" r="8" />
    <circle cx="75" cy="50" r="8" />
  </g>
  
  <!-- رمز التفاحة -->
  <g fill="#FFD700">
    <path d="M50,20 C55,15 65,18 65,25 C65,32 55,35 50,30 C45,35 35,32 35,25 C35,18 45,15 50,20 Z" />
    <path d="M50,30 C55,30 60,35 60,45 C60,55 55,65 50,65 C45,65 40,55 40,45 C40,35 45,30 50,30 Z" />
  </g>
</svg>
